# xmcd
# Copyright (C) 1995-1998 Ti Kan
#
# Track frame offsets:
#       150
#       17395
#       38487
#       62583
#       82840
#       98413
#       114665
#       138373
#       155020
#       169473
#
# Disc length: 2577 seconds
#
# Revision: 0
# Processed by: cddbd v1.4PL0 Copyright (c) Steve Scherf et al.
# Submitted via: CD-Transfer v1.0
#
DISCID=6e0a0f0a
DTITLE=Joe Schwach - Out Of The Blue
DYEAR=1994
DGENRE=
TTITLE0=Around The World
TTITLE1=Stranger In Your Town
TTITLE2=Our Time Is Coming
TTITLE3=Tougher Than The Rest
TTITLE4=Learning The Game
TTITLE5=The Joker
TTITLE6=Traffic Jam
TTITLE7=Wanna Hold You
TTITLE8=It's Gone
TTITLE9=Rest Of The Dream
EXTD=
EXTT0=
EXTT1=
EXTT2=
EXTT3=
EXTT4=
EXTT5=
EXTT6=
EXTT7=
EXTT8=
EXTT9=
PLAYORDER=
